<?xml version="1.0" encoding="UTF-8" standalone="no"?>
<!-- Created with Inkscape (http://www.inkscape.org/) -->

<svg
   xmlns:dc="http://purl.org/dc/elements/1.1/"
   xmlns:cc="http://creativecommons.org/ns#"
   xmlns:rdf="http://www.w3.org/1999/02/22-rdf-syntax-ns#"
   xmlns:svg="http://www.w3.org/2000/svg"
   xmlns="http://www.w3.org/2000/svg"
   xmlns:sodipodi="http://sodipodi.sourceforge.net/DTD/sodipodi-0.dtd"
   xmlns:inkscape="http://www.inkscape.org/namespaces/inkscape"
   version="1.1"
   id="svg3956"
   xml:space="preserve"
   width="779.33862"
   height="491.33859"
   viewBox="0 0 779.33862 491.33859"
   sodipodi:docname="F4_c2.svg"
   inkscape:version="0.92.1 r15371"><metadata
     id="metadata3962"><rdf:RDF><cc:Work
         rdf:about=""><dc:format>image/svg+xml</dc:format><dc:type
           rdf:resource="http://purl.org/dc/dcmitype/StillImage" /><dc:title></dc:title></cc:Work></rdf:RDF></metadata><defs
     id="defs3960"><clipPath
       clipPathUnits="userSpaceOnUse"
       id="clipPath4052"><path
         d="M 59.641,335.242 H 225.512 V 320.844 H 59.641 Z"
         id="path4050"
         inkscape:connector-curvature="0" /></clipPath><clipPath
       clipPathUnits="userSpaceOnUse"
       id="clipPath4062"><path
         d="m 59,320 h 167 v 17 H 59 Z"
         id="path4060"
         inkscape:connector-curvature="0" /></clipPath><clipPath
       clipPathUnits="userSpaceOnUse"
       id="clipPath4122"><path
         d="M 225.512,335.242 H 391.383 V 320.844 H 225.512 Z"
         id="path4120"
         inkscape:connector-curvature="0" /></clipPath><clipPath
       clipPathUnits="userSpaceOnUse"
       id="clipPath4132"><path
         d="m 225,320 h 167 v 17 H 225 Z"
         id="path4130"
         inkscape:connector-curvature="0" /></clipPath><clipPath
       clipPathUnits="userSpaceOnUse"
       id="clipPath4200"><path
         d="M 391.383,335.242 H 557.254 V 320.844 H 391.383 Z"
         id="path4198"
         inkscape:connector-curvature="0" /></clipPath><clipPath
       clipPathUnits="userSpaceOnUse"
       id="clipPath4210"><path
         d="m 391,320 h 167 v 17 H 391 Z"
         id="path4208"
         inkscape:connector-curvature="0" /></clipPath></defs><sodipodi:namedview
     pagecolor="#ffffff"
     bordercolor="#666666"
     borderopacity="1"
     objecttolerance="10"
     gridtolerance="10"
     guidetolerance="10"
     inkscape:pageopacity="0"
     inkscape:pageshadow="2"
     inkscape:window-width="1920"
     inkscape:window-height="1005"
     id="namedview3958"
     showgrid="false"
     inkscape:zoom="1.5326361"
     inkscape:cx="279.72801"
     inkscape:cy="245.6693"
     inkscape:window-x="1271"
     inkscape:window-y="-9"
     inkscape:window-maximized="1"
     inkscape:current-layer="g3964" /><g
     id="g3964"
     inkscape:groupmode="layer"
     inkscape:label="F4_c2"
     transform="matrix(1.3333333,0,0,-1.3333333,0,491.33858)"><g
       id="g3966"><text
         transform="matrix(1,0,0,-1,292.43196,10.251968)"
         style="font-variant:normal;font-weight:normal;font-size:18px;font-family:Helvetica;-inkscape-font-specification:Helvetica;writing-mode:lr-tb;fill:#000000;fill-opacity:1;fill-rule:nonzero;stroke:none"
         id="text3970"><tspan
           x="0 11.988 21.996"
           y="0"
           sodipodi:role="line"
           id="tspan3968">Age</tspan></text>
<text
         transform="matrix(0,1,1,0,17.171968,178.32196)"
         style="font-variant:normal;font-weight:normal;font-size:18px;font-family:Helvetica;-inkscape-font-specification:Helvetica;writing-mode:lr-tb;fill:#000000;fill-opacity:1;fill-rule:nonzero;stroke:none"
         id="text3974"><tspan
           x="0 10.008"
           y="0"
           sodipodi:role="line"
           id="tspan3972">dx</tspan></text>
<g
         id="g3976"
         transform="translate(0,368.50394)"><path
           d="M 59.641,-297.371 H 53.973"
           style="fill:none;stroke:#000000;stroke-width:0.75;stroke-linecap:round;stroke-linejoin:round;stroke-miterlimit:10;stroke-dasharray:none;stroke-opacity:1"
           id="path3978"
           inkscape:connector-curvature="0" /></g><g
         id="g3980"
         transform="translate(0,368.50394)"><path
           d="M 59.641,-252.051 H 53.973"
           style="fill:none;stroke:#000000;stroke-width:0.75;stroke-linecap:round;stroke-linejoin:round;stroke-miterlimit:10;stroke-dasharray:none;stroke-opacity:1"
           id="path3982"
           inkscape:connector-curvature="0" /></g><g
         id="g3984"
         transform="translate(0,368.50394)"><path
           d="M 59.641,-206.742 H 53.973"
           style="fill:none;stroke:#000000;stroke-width:0.75;stroke-linecap:round;stroke-linejoin:round;stroke-miterlimit:10;stroke-dasharray:none;stroke-opacity:1"
           id="path3986"
           inkscape:connector-curvature="0" /></g><g
         id="g3988"
         transform="translate(0,368.50394)"><path
           d="M 59.641,-161.434 H 53.973"
           style="fill:none;stroke:#000000;stroke-width:0.75;stroke-linecap:round;stroke-linejoin:round;stroke-miterlimit:10;stroke-dasharray:none;stroke-opacity:1"
           id="path3990"
           inkscape:connector-curvature="0" /></g><g
         id="g3992"
         transform="translate(0,368.50394)"><path
           d="M 59.641,-116.113 H 53.973"
           style="fill:none;stroke:#000000;stroke-width:0.75;stroke-linecap:round;stroke-linejoin:round;stroke-miterlimit:10;stroke-dasharray:none;stroke-opacity:1"
           id="path3994"
           inkscape:connector-curvature="0" /></g><g
         id="g3996"
         transform="translate(0,368.50394)"><path
           d="M 59.641,-70.801 H 53.973"
           style="fill:none;stroke:#000000;stroke-width:0.75;stroke-linecap:round;stroke-linejoin:round;stroke-miterlimit:10;stroke-dasharray:none;stroke-opacity:1"
           id="path3998"
           inkscape:connector-curvature="0" /></g><text
         transform="matrix(1,0,0,-1,28.841968,67.541967)"
         style="font-variant:normal;font-weight:normal;font-size:10px;font-family:Helvetica;-inkscape-font-specification:Helvetica;writing-mode:lr-tb;fill:#000000;fill-opacity:1;fill-rule:nonzero;stroke:none"
         id="text4012"><tspan
           x="0 5.5599999 8.3299999 13.89"
           y="0"
           sodipodi:role="line"
           id="tspan4000">0.00</tspan><tspan
           x="0 5.5599999 8.3299999 13.89"
           y="-45.32"
           sodipodi:role="line"
           id="tspan4002">0.01</tspan><tspan
           x="0 5.5599999 8.3299999 13.89"
           y="-90.629997"
           sodipodi:role="line"
           id="tspan4004">0.02</tspan><tspan
           x="0 5.5599999 8.3299999 13.89"
           y="-135.94"
           sodipodi:role="line"
           id="tspan4006">0.03</tspan><tspan
           x="0 5.5599999 8.3299999 13.89"
           y="-181.25999"
           sodipodi:role="line"
           id="tspan4008">0.04</tspan><tspan
           x="0 5.5599999 8.3299999 13.89"
           y="-226.57001"
           sodipodi:role="line"
           id="tspan4010">0.05</tspan></text>
<g
         id="g4014"
         transform="translate(0,368.50394)"><path
           d="M 152.031,-313.703 V -47.66"
           style="fill:none;stroke:#000000;stroke-width:0.75;stroke-linecap:round;stroke-linejoin:round;stroke-miterlimit:10;stroke-dasharray:0, 3;stroke-dashoffset:0;stroke-opacity:1"
           id="path4016"
           inkscape:connector-curvature="0" /></g><g
         id="g4018"
         transform="translate(0,368.50394)"><path
           d="m 69.832,-295.73 0.18,0.019 0.179,0.027 0.18,0.024 0.18,0.019 0.191,0.02 0.18,0.019 0.18,0.032 0.359,0.039 0.191,0.027 0.18,0.024 0.18,0.027 0.179,0.019 0.18,0.032 0.18,0.019 0.191,0.031 0.18,0.032 0.18,0.019 0.179,0.028 0.18,0.031 0.191,0.019 0.36,0.063 0.179,0.027 0.18,0.031 0.191,0.032 0.18,0.027 0.36,0.063 0.179,0.027 0.18,0.031 0.191,0.031 0.18,0.039 0.18,0.032 0.179,0.027 0.18,0.039 0.191,0.031 0.18,0.032 0.18,0.039 0.18,0.031 0.179,0.039 0.192,0.039 0.179,0.031 0.36,0.078 0.179,0.043 0.18,0.028 0.191,0.043 0.54,0.117 0.179,0.051 0.192,0.039 0.179,0.043 0.18,0.039 0.18,0.051 0.179,0.039 0.192,0.05 0.179,0.039 0.18,0.051 0.18,0.039 0.359,0.102 0.192,0.039 0.179,0.051 0.18,0.047 0.359,0.101 0.192,0.059 0.539,0.152 0.18,0.059 0.191,0.05 0.18,0.059 0.179,0.051 0.18,0.058 0.18,0.063 0.179,0.059 0.192,0.058 0.179,0.063 0.18,0.058 0.18,0.063 0.18,0.058 0.191,0.059 0.18,0.07 0.179,0.063 0.18,0.066 0.18,0.063 0.191,0.07 0.539,0.211 0.18,0.066 0.18,0.071 0.191,0.07 0.18,0.07 0.179,0.082 0.18,0.071 0.18,0.078 0.191,0.082 0.18,0.078 0.179,0.082 0.36,0.156 0.191,0.082 0.18,0.078 0.18,0.09 0.179,0.082 0.36,0.18 0.191,0.09 0.719,0.359 0.191,0.102 0.18,0.089 0.18,0.098 0.359,0.203 0.18,0.098 0.191,0.101 0.18,0.098 0.179,0.113 0.18,0.11 0.18,0.097 0.191,0.114 0.36,0.218 0.179,0.122 0.18,0.109 0.191,0.117 0.18,0.113 0.18,0.118 0.179,0.121 0.18,0.129 0.18,0.121 0.191,0.121 0.36,0.258 0.179,0.132 0.18,0.129 0.191,0.129 0.18,0.141 0.18,0.129 0.359,0.281 0.192,0.141 0.179,0.148 0.18,0.141 0.18,0.148 0.179,0.152 0.18,0.149 0.191,0.152 0.18,0.16 0.18,0.149 0.359,0.32 0.192,0.16 0.179,0.168 0.18,0.16 0.18,0.172 0.179,0.168 0.192,0.184 0.179,0.168 0.911,0.91 0.179,0.191 0.18,0.188 0.18,0.191 0.179,0.2 0.192,0.199 0.179,0.203 0.36,0.398 0.179,0.211 0.192,0.207 0.18,0.223 0.179,0.211 0.539,0.656 0.192,0.231 0.359,0.461 0.18,0.242 0.179,0.226 0.192,0.242 0.18,0.25 0.179,0.239 0.18,0.25 0.18,0.261 0.187,0.25 0.184,0.258 0.179,0.262 0.539,0.809 0.192,0.269 0.359,0.563 0.18,0.289 0.18,0.281 0.187,0.301 0.184,0.289 0.179,0.301 0.18,0.296 0.18,0.313 0.187,0.309 0.184,0.308 0.539,0.961 0.18,0.332 0.187,0.328 0.184,0.34 0.359,0.68 0.18,0.351 0.187,0.352 0.184,0.359 0.359,0.719 0.18,0.371 0.187,0.367 0.18,0.383 0.184,0.379 0.539,1.172 0.187,0.398 0.184,0.41 0.359,0.821 0.18,0.418 0.187,0.422 0.18,0.429 0.184,0.43 0.179,0.441 0.18,0.438 0.188,0.449 0.179,0.453 0.184,0.457 0.18,0.461 0.179,0.473 0.18,0.469 0.187,0.48 0.18,0.481 0.184,0.488 0.359,1 0.188,0.5 0.179,0.512 0.184,0.519 0.18,0.52 0.179,0.531 0.188,0.527 0.179,0.539 0.18,0.551 0.184,0.551 0.179,0.558 0.18,0.563 0.188,0.57 0.179,0.571 0.184,0.578 0.359,1.179 0.188,0.602 0.359,1.219 0.184,0.621 0.179,0.621 0.188,0.629 0.18,0.64 0.179,0.637 0.184,0.66 0.18,0.653 0.179,0.668 0.188,0.671 0.179,0.668 0.18,0.692 0.184,0.691 0.179,0.699 0.188,0.7 0.18,0.711 0.179,0.718 0.184,0.719 0.18,0.742 0.187,0.739 0.18,0.742 0.179,0.75 0.18,0.758 0.184,0.769 0.179,0.781 0.188,0.782 0.359,1.578 0.184,0.812 0.18,0.809 0.187,0.82 0.18,0.82 0.179,0.829 0.18,0.839 0.184,0.852 0.179,0.859 0.188,0.86 0.18,0.871 0.179,0.879 0.184,0.883 0.18,0.886 0.187,0.903 0.359,1.82 0.18,0.918 0.184,0.93 0.187,0.941 0.18,0.941 0.18,0.95 0.179,0.961 0.184,0.968 0.18,0.969 0.187,0.981 0.18,0.992 0.179,0.988 0.18,1 0.184,1.012 0.187,1.019 0.18,1.02 0.18,1.027 0.179,1.043 0.184,1.051 0.187,1.047 0.18,1.051 0.359,2.14 0.18,1.078 0.184,1.082 0.187,1.09 0.18,1.102 0.359,2.218 0.184,1.11 0.187,1.121 0.18,1.129 0.539,3.422 0.192,1.148 0.359,2.32 0.18,1.168 0.179,1.172 0.184,1.168 0.187,1.192 0.18,1.179 0.18,1.192 0.179,1.199 0.18,1.191 0.192,1.2 0.179,1.211 0.18,1.207 0.18,1.211 0.179,1.218 0.192,1.211 0.179,1.231 0.18,1.218 0.18,1.223 0.179,1.231 0.18,1.226 0.192,1.231 0.179,1.23 0.18,1.242 0.18,1.231 0.179,1.226 0.192,1.242 0.359,2.461 0.18,1.239 0.179,1.23 0.192,1.231 0.18,1.23 0.179,1.219 0.18,1.23 0.18,1.219 0.179,1.211 0.192,1.219 0.359,2.422 0.359,2.398 0.192,1.191 0.539,3.54 0.18,1.16 0.191,1.16 0.18,1.148 0.359,2.282 0.18,1.121 0.179,1.109 0.192,1.109 0.18,1.09 0.179,1.082 0.18,1.071 0.18,1.058 0.191,1.051 0.18,1.027 0.179,1.024 0.18,1 0.18,0.988 0.191,0.98 0.18,0.95 0.18,0.941 0.179,0.93 0.18,0.91 0.18,0.879 0.191,0.871 0.18,0.848 0.179,0.832 0.18,0.808 0.18,0.789 0.191,0.774 0.18,0.738 0.18,0.73 0.179,0.692 0.18,0.68 0.191,0.648 0.18,0.621 0.18,0.598 0.179,0.57 0.18,0.551 0.18,0.519 0.191,0.493 0.18,0.457 0.18,0.429 0.179,0.403 0.18,0.371 0.191,0.34 0.18,0.308 0.18,0.27 0.179,0.25 0.18,0.211 0.191,0.168 0.18,0.152 0.18,0.098 0.18,0.07 0.179,0.043 h 0.18 l 0.191,-0.043 0.18,-0.078 0.18,-0.11 0.179,-0.152 0.18,-0.187 0.191,-0.231 0.18,-0.269 0.18,-0.313 0.18,-0.34 0.179,-0.39 0.192,-0.43 0.179,-0.469 0.18,-0.512 0.18,-0.558 0.179,-0.59 0.18,-0.641 0.191,-0.679 0.18,-0.719 0.18,-0.77 0.18,-0.812 0.179,-0.848 0.192,-0.89 0.179,-0.93 0.18,-0.981 0.18,-1.019 0.179,-1.07 0.18,-1.102 0.191,-1.148 0.18,-1.192 0.18,-1.238 0.18,-1.27 0.179,-1.32 0.192,-1.351 0.179,-1.399 0.18,-1.441 0.18,-1.481 0.179,-1.519 0.192,-1.559 0.179,-1.601 0.18,-1.629 0.18,-1.672 0.18,-1.707 0.179,-1.75 0.192,-1.782 0.179,-1.82 0.18,-1.851 0.18,-1.879 0.179,-1.918 0.192,-1.942 0.179,-1.98 0.18,-2.012 0.18,-2.039 0.18,-2.059 0.191,-2.101 0.18,-2.109 0.179,-2.141 0.18,-2.168 0.18,-2.191 0.179,-2.211 0.192,-2.219 0.179,-2.25 0.18,-2.262 0.18,-2.277 0.18,-2.301 0.191,-2.309 0.18,-2.32 0.179,-2.332 0.18,-2.34 0.18,-2.347 0.191,-2.352 0.18,-2.359 0.179,-2.371 0.18,-2.36 0.18,-2.371 0.18,-2.359 0.191,-2.371 0.18,-2.36 0.179,-2.347 0.18,-2.352 0.18,-2.34 0.191,-2.332 0.18,-2.316 0.179,-2.313 0.18,-2.289 0.18,-2.281 0.191,-2.27 0.18,-2.238 0.18,-2.23 0.179,-2.211 0.18,-2.18 0.18,-2.172 0.191,-2.129 0.18,-2.121 0.179,-2.09 0.18,-2.058 0.18,-2.032 0.191,-2.007 0.18,-1.969 0.18,-1.942 0.179,-1.91 0.18,-1.879 0.191,-1.851 0.18,-1.809 0.18,-1.781 0.179,-1.738 0.18,-1.703 0.18,-1.668 0.191,-1.629 0.18,-1.602 0.18,-1.558 0.179,-1.512 0.18,-1.488 0.191,-1.442 0.18,-1.398 0.18,-1.371 0.179,-1.332 0.18,-1.278 0.192,-1.25 0.179,-1.222 0.18,-1.168 0.18,-1.141 0.179,-1.09 0.18,-1.058 0.191,-1.032 0.18,-0.992 0.18,-0.949 0.179,-0.91 0.18,-0.879 0.192,-0.852 0.179,-0.808 0.18,-0.782 0.18,-0.738 0.179,-0.719 0.192,-0.679 0.179,-0.653 0.18,-0.621 0.18,-0.59 0.179,-0.57 0.18,-0.527 0.192,-0.512 0.179,-0.488 0.18,-0.449 0.18,-0.442 0.179,-0.41 0.192,-0.391 0.179,-0.359 0.18,-0.352 0.18,-0.32 0.179,-0.308 0.192,-0.29 0.18,-0.269 0.179,-0.25 0.18,-0.231 0.18,-0.218 0.179,-0.211 0.371,-0.371 0.18,-0.168 0.18,-0.153 0.179,-0.148 0.192,-0.133 0.18,-0.117 0.179,-0.109 0.18,-0.114 0.18,-0.09 0.187,-0.089 0.184,-0.079 0.179,-0.082 0.18,-0.07 0.18,-0.058 0.179,-0.051 0.192,-0.059 0.18,-0.039 0.179,-0.051 0.18,-0.031 0.18,-0.039 0.187,-0.031 0.184,-0.028 0.179,-0.031 0.36,-0.039 0.187,-0.019 0.184,-0.012 0.18,-0.02 0.179,-0.011 0.18,-0.008 0.18,-0.012 0.187,-0.008 0.184,-0.011 0.179,-0.008 h 0.18 l 0.18,-0.012 0.187,-0.012 h 0.364 l 0.179,-0.008 h 0.547 l 0.184,-0.011 h 2.179 l 0.18,-0.008 h 24.367"
           style="fill:none;stroke:#6baed6;stroke-width:2.25;stroke-linecap:round;stroke-linejoin:round;stroke-miterlimit:10;stroke-dasharray:none;stroke-opacity:1"
           id="path4020"
           inkscape:connector-curvature="0" /></g><text
         transform="matrix(1,0,0,-1,137.94196,290.33196)"
         style="font-variant:normal;font-weight:normal;font-size:12px;font-family:Helvetica;-inkscape-font-specification:Helvetica;writing-mode:lr-tb;fill:#000000;fill-opacity:1;fill-rule:nonzero;stroke:none"
         id="text4024"><tspan
           x="0"
           y="0"
           id="tspan4022">M</tspan></text>
<g
         id="g4026"
         transform="translate(0,368.50394)"><path
           d="m 69.832,-313.703 v -5.668"
           style="fill:none;stroke:#000000;stroke-width:0.75;stroke-linecap:round;stroke-linejoin:round;stroke-miterlimit:10;stroke-dasharray:none;stroke-opacity:1"
           id="path4028"
           inkscape:connector-curvature="0" /></g><g
         id="g4030"
         transform="translate(0,368.50394)"><path
           d="m 152.031,-313.703 v -5.668"
           style="fill:none;stroke:#000000;stroke-width:0.75;stroke-linecap:round;stroke-linejoin:round;stroke-miterlimit:10;stroke-dasharray:none;stroke-opacity:1"
           id="path4032"
           inkscape:connector-curvature="0" /></g><g
         id="g4034"
         transform="translate(0,368.50394)"><path
           d="m 215.32,-313.703 v -5.668"
           style="fill:none;stroke:#000000;stroke-width:0.75;stroke-linecap:round;stroke-linejoin:round;stroke-miterlimit:10;stroke-dasharray:none;stroke-opacity:1"
           id="path4036"
           inkscape:connector-curvature="0" /></g><text
         transform="matrix(1,0,0,-1,64.271967,36.281967)"
         style="font-variant:normal;font-weight:normal;font-size:10px;font-family:Helvetica;-inkscape-font-specification:Helvetica;writing-mode:lr-tb;fill:#000000;fill-opacity:1;fill-rule:nonzero;stroke:none"
         id="text4040"><tspan
           x="0 5.5599999 82.199997 87.760002 142.71001 148.27 153.83"
           y="0"
           sodipodi:role="line"
           id="tspan4038">4085120</tspan></text>
<g
         id="g4042"
         transform="translate(0,368.50394)"><path
           d="M 59.641,-47.66 H 225.512 V -313.703 H 59.641 Z"
           style="fill:none;stroke:#000000;stroke-width:0.75;stroke-linecap:round;stroke-linejoin:round;stroke-miterlimit:10;stroke-dasharray:none;stroke-opacity:1"
           id="path4044"
           inkscape:connector-curvature="0" /></g></g><g
       id="g4046"><g
         id="g4048"
         clip-path="url(#clipPath4052)"><g
           id="g4054"
           transform="translate(0,-0.496063)"><g
             id="g4056"><g
               id="g4058"
               clip-path="url(#clipPath4062)"><g
                 id="g4064"><g
                   id="g4066"
                   transform="translate(0,369)"><path
                     d="M 59.641,-33.262 H 225.512 V -47.66 H 59.641 Z"
                     style="fill:#ffe5cc;fill-opacity:1;fill-rule:nonzero;stroke:#ffe5cc;stroke-width:0.75;stroke-linecap:round;stroke-linejoin:round;stroke-miterlimit:10;stroke-dasharray:none;stroke-opacity:1"
                     id="path4068"
                     inkscape:connector-curvature="0" /></g><text
                   transform="matrix(1,0,0,-1,134.91196,324.22802)"
                   style="font-variant:normal;font-weight:normal;font-size:12px;font-family:Helvetica;-inkscape-font-specification:Helvetica;writing-mode:lr-tb;fill:#000000;fill-opacity:1;fill-rule:nonzero;stroke:none"
                   id="text4072"><tspan
                     x="0 8.6639996"
                     y="0"
                     sodipodi:role="line"
                     id="tspan4070">C1</tspan></text>
</g></g></g></g></g></g><g
       transform="translate(0,368.50394)"
       id="g4076"><path
         inkscape:connector-curvature="0"
         id="path4078"
         style="fill:none;stroke:#000000;stroke-width:0.75;stroke-linecap:round;stroke-linejoin:round;stroke-miterlimit:10;stroke-dasharray:none;stroke-opacity:1"
         d="M 59.641,-33.262 H 225.512 V -47.66 H 59.641 Z" /></g><g
       transform="translate(0,368.50394)"
       id="g4080"><path
         inkscape:connector-curvature="0"
         id="path4082"
         style="fill:none;stroke:#000000;stroke-width:0.75;stroke-linecap:round;stroke-linejoin:round;stroke-miterlimit:10;stroke-dasharray:0, 3;stroke-dashoffset:0;stroke-opacity:1"
         d="M 323.543,-313.703 V -47.66" /></g><g
       transform="translate(0,368.50394)"
       id="g4084"><path
         inkscape:connector-curvature="0"
         id="path4086"
         style="fill:none;stroke:#4292c6;stroke-width:2.25;stroke-linecap:round;stroke-linejoin:round;stroke-miterlimit:10;stroke-dasharray:none;stroke-opacity:1"
         d="m 235.691,-296.461 0.192,0.008 0.179,0.012 0.18,0.007 0.18,0.024 0.18,0.008 0.179,0.011 0.192,0.008 0.179,0.02 0.18,0.011 0.18,0.02 0.179,0.012 0.192,0.008 0.179,0.019 0.18,0.012 0.18,0.019 0.18,0.008 0.191,0.024 0.18,0.007 0.179,0.02 0.18,0.012 0.359,0.039 0.192,0.011 0.359,0.039 0.18,0.008 0.18,0.024 0.191,0.019 0.18,0.02 0.179,0.008 0.18,0.019 0.18,0.024 0.191,0.019 0.899,0.098 0.191,0.019 0.18,0.024 0.539,0.058 0.191,0.02 0.18,0.031 0.359,0.039 0.18,0.031 0.191,0.02 0.18,0.019 0.18,0.032 0.179,0.019 0.18,0.028 0.18,0.019 0.191,0.031 0.18,0.02 0.179,0.031 0.18,0.02 0.18,0.031 0.191,0.027 0.18,0.024 0.18,0.027 0.359,0.063 0.191,0.027 0.36,0.062 0.179,0.028 0.36,0.062 0.191,0.028 0.36,0.062 0.179,0.039 0.18,0.031 0.191,0.028 0.18,0.043 0.18,0.027 0.179,0.039 0.18,0.031 0.192,0.039 0.179,0.032 0.18,0.039 0.18,0.043 0.179,0.039 0.18,0.027 0.191,0.043 0.539,0.117 0.18,0.043 0.192,0.039 0.179,0.051 0.36,0.078 0.179,0.051 0.18,0.039 0.191,0.051 0.18,0.039 0.18,0.051 0.179,0.039 0.18,0.051 0.192,0.05 0.359,0.102 0.18,0.047 0.179,0.051 0.192,0.05 0.359,0.102 0.18,0.058 0.179,0.051 0.18,0.059 0.192,0.051 0.179,0.058 0.18,0.063 0.18,0.047 0.179,0.062 0.192,0.059 0.179,0.058 0.18,0.063 0.18,0.07 0.179,0.059 0.192,0.058 0.18,0.071 0.179,0.062 0.18,0.07 0.18,0.059 0.179,0.07 0.192,0.071 0.539,0.211 0.179,0.078 0.192,0.07 0.18,0.07 0.179,0.078 0.18,0.082 0.18,0.071 0.187,0.078 0.184,0.082 0.179,0.078 0.18,0.082 0.18,0.09 0.179,0.078 0.192,0.09 0.18,0.082 0.539,0.269 0.187,0.09 0.184,0.09 0.179,0.09 0.18,0.102 0.18,0.097 0.187,0.09 0.184,0.102 0.18,0.097 0.359,0.203 0.18,0.11 0.187,0.097 0.184,0.114 0.539,0.328 0.187,0.109 0.184,0.11 0.18,0.121 0.179,0.109 0.18,0.121 0.187,0.121 0.18,0.117 0.184,0.133 0.179,0.117 0.18,0.133 0.18,0.129 0.187,0.129 0.184,0.133 0.359,0.258 0.18,0.14 0.187,0.141 0.18,0.141 0.184,0.136 0.179,0.153 0.18,0.14 0.188,0.149 0.179,0.148 0.184,0.152 0.18,0.149 0.359,0.32 0.187,0.16 0.18,0.161 0.184,0.16 0.179,0.172 0.18,0.16 0.188,0.179 0.179,0.168 0.184,0.172 0.359,0.36 0.188,0.179 0.179,0.18 0.18,0.191 0.184,0.188 0.359,0.383 0.188,0.199 0.179,0.199 0.184,0.199 0.18,0.2 0.179,0.211 0.188,0.21 0.179,0.211 0.18,0.207 0.184,0.223 0.179,0.219 0.188,0.219 0.359,0.461 0.184,0.23 0.18,0.23 0.179,0.239 0.188,0.242 0.179,0.25 0.18,0.238 0.184,0.25 0.179,0.262 0.188,0.25 0.18,0.258 0.179,0.261 0.184,0.27 0.18,0.27 0.187,0.269 0.359,0.563 0.18,0.277 0.184,0.293 0.179,0.289 0.188,0.289 0.359,0.602 0.184,0.296 0.18,0.313 0.187,0.32 0.18,0.309 0.179,0.32 0.18,0.328 0.184,0.332 0.187,0.328 0.36,0.68 0.179,0.344 0.184,0.348 0.18,0.351 0.187,0.359 0.18,0.36 0.179,0.371 0.18,0.367 0.184,0.383 0.187,0.379 0.18,0.379 0.18,0.39 0.179,0.403 0.184,0.398 0.18,0.399 0.187,0.41 0.18,0.41 0.179,0.422 0.18,0.418 0.184,0.429 0.187,0.442 0.18,0.441 0.18,0.438 0.179,0.453 0.184,0.449 0.187,0.457 0.18,0.473 0.18,0.469 0.359,0.96 0.184,0.489 0.187,0.492 0.36,1 0.179,0.519 0.184,0.508 0.187,0.524 0.18,0.527 0.18,0.539 0.179,0.543 0.18,0.551 0.192,0.547 0.179,0.562 0.18,0.559 0.18,0.582 0.179,0.578 0.184,0.578 0.187,0.594 0.18,0.598 0.18,0.601 0.179,0.617 0.18,0.614 0.192,0.628 0.179,0.629 0.18,0.641 0.18,0.648 0.179,0.653 0.192,0.66 0.179,0.668 0.18,0.672 0.18,0.679 0.179,0.692 0.18,0.699 0.192,0.699 0.179,0.711 0.36,1.438 0.179,0.742 0.192,0.738 0.179,0.742 0.18,0.758 0.18,0.762 0.179,0.777 0.192,0.774 0.18,0.789 0.179,0.801 0.18,0.796 0.18,0.813 0.179,0.82 0.192,0.821 0.359,1.679 0.18,0.848 0.179,0.859 0.192,0.871 0.18,0.871 0.179,0.879 0.18,0.903 0.18,0.898 0.191,0.899 0.18,0.921 0.179,0.918 0.36,1.883 0.179,0.949 0.192,0.95 0.18,0.968 0.179,0.973 0.18,0.988 0.18,0.993 0.191,1 0.18,1 0.359,2.039 0.18,1.031 0.191,1.039 0.18,1.051 0.359,2.117 0.18,1.082 0.18,1.078 0.191,1.09 0.18,1.09 0.179,1.109 0.18,1.113 0.18,1.118 0.191,1.132 0.18,1.129 0.18,1.149 0.179,1.152 0.18,1.16 0.191,1.16 0.539,3.539 0.36,2.399 0.191,1.211 0.18,1.211 0.18,1.219 0.179,1.23 0.18,1.238 0.191,1.242 0.18,1.239 0.18,1.261 0.179,1.25 0.18,1.27 0.191,1.27 0.18,1.269 0.36,2.563 0.179,1.289 0.18,1.3 0.191,1.289 0.18,1.301 0.359,2.617 0.18,1.313 0.191,1.309 0.36,2.64 0.18,1.328 0.179,1.321 0.192,1.332 0.179,1.328 0.18,1.32 0.18,1.332 0.179,1.328 0.18,1.332 0.191,1.34 0.18,1.328 0.18,1.321 0.18,1.332 0.179,1.328 0.192,1.32 0.539,3.961 0.179,1.309 0.192,1.308 0.179,1.313 0.18,1.289 0.18,1.3 0.18,1.29 0.179,1.281 0.192,1.269 0.179,1.27 0.18,1.262 0.18,1.257 0.179,1.243 0.192,1.226 0.179,1.231 0.18,1.211 0.18,1.199 0.18,1.203 0.179,1.18 0.192,1.16 0.179,1.16 0.18,1.137 0.18,1.132 0.179,1.11 0.192,1.09 0.179,1.078 0.18,1.062 0.18,1.047 0.18,1.031 0.191,1.012 0.18,0.988 0.179,0.969 0.18,0.942 0.18,0.929 0.179,0.91 0.192,0.879 0.179,0.864 0.18,0.828 0.18,0.808 0.18,0.793 0.191,0.758 0.18,0.731 0.179,0.71 0.18,0.668 0.18,0.653 0.191,0.621 0.18,0.59 0.179,0.547 0.18,0.531 0.18,0.488 0.18,0.461 0.191,0.43 0.18,0.39 0.179,0.36 0.18,0.32 0.18,0.289 0.191,0.242 0.18,0.219 0.179,0.172 0.18,0.129 0.18,0.101 0.191,0.047 0.18,0.024 0.18,-0.032 0.179,-0.07 0.18,-0.109 0.18,-0.16 0.191,-0.192 0.18,-0.238 0.179,-0.289 0.18,-0.332 0.18,-0.371 0.191,-0.418 0.18,-0.461 0.18,-0.512 0.179,-0.558 0.18,-0.61 0.191,-0.648 0.18,-0.703 0.18,-0.739 0.179,-0.789 0.18,-0.84 0.18,-0.89 0.191,-0.942 0.18,-0.98 0.18,-1.027 0.179,-1.082 0.18,-1.129 0.191,-1.18 0.18,-1.223 0.18,-1.269 0.179,-1.321 0.18,-1.359 0.192,-1.41 0.179,-1.457 0.18,-1.5 0.18,-1.551 0.179,-1.601 0.18,-1.629 0.191,-1.692 0.18,-1.719 0.18,-1.769 0.179,-1.813 0.18,-1.847 0.192,-1.891 0.179,-1.93 0.18,-1.968 0.18,-2.012 0.179,-2.051 0.192,-2.078 0.179,-2.109 0.18,-2.153 0.18,-2.187 0.179,-2.211 0.18,-2.242 0.192,-2.278 0.179,-2.3 0.18,-2.332 0.18,-2.348 0.179,-2.383 0.192,-2.398 0.179,-2.418 0.18,-2.442 0.18,-2.461 0.179,-2.468 0.192,-2.493 0.18,-2.507 0.179,-2.512 0.18,-2.527 0.18,-2.532" /></g><g
       transform="translate(0,368.50394)"
       id="g4088"><path
         inkscape:connector-curvature="0"
         id="path4090"
         style="fill:none;stroke:#74c476;stroke-width:2.25;stroke-linecap:round;stroke-linejoin:round;stroke-miterlimit:10;stroke-dasharray:6.75, 11.25;stroke-dashoffset:0;stroke-opacity:1"
         d="m 335.902,-172.551 0.192,-2.551 0.539,-7.652 0.179,-2.547 0.192,-2.551 0.18,-2.539 0.179,-2.543 0.36,-5.039 0.187,-2.507 0.184,-2.493 0.179,-2.48 0.18,-2.457 0.18,-2.453 0.179,-2.418 0.192,-2.403 0.18,-2.386 0.179,-2.352 0.18,-2.34 0.18,-2.3 0.187,-2.282 0.184,-2.25 0.179,-2.218 0.18,-2.18 0.18,-2.16 0.187,-2.121 0.184,-2.079 0.18,-2.05 0.179,-2.008 0.18,-1.981 0.18,-1.929 0.187,-1.903 0.184,-1.859 0.179,-1.809 0.18,-1.781 0.18,-1.73 0.187,-1.692 0.184,-1.648 0.18,-1.61 0.179,-1.558 0.18,-1.531 0.187,-1.469 0.18,-1.442 0.184,-1.39 0.179,-1.352 0.18,-1.297 0.18,-1.261 0.187,-1.219 0.184,-1.18 0.18,-1.14 0.179,-1.09 0.18,-1.063 0.187,-1.008 0.18,-0.98 0.184,-0.93 0.179,-0.898 0.18,-0.852 0.188,-0.832 0.179,-0.777 0.184,-0.75 0.18,-0.723 0.179,-0.679 0.18,-0.649 0.187,-0.609 0.18,-0.59 0.184,-0.551 0.179,-0.531 0.18,-0.488 0.188,-0.469 0.179,-0.453 0.184,-0.418 0.18,-0.391 0.179,-0.371 0.18,-0.348 0.187,-0.332 0.18,-0.3 0.184,-0.289 0.179,-0.27 0.18,-0.238 0.188,-0.242 0.179,-0.211 0.184,-0.2 0.18,-0.187 0.179,-0.172 0.188,-0.16 0.179,-0.149 0.18,-0.14 0.184,-0.121 0.179,-0.121 0.18,-0.098 0.188,-0.102 0.179,-0.089 0.184,-0.079 0.18,-0.082 0.179,-0.058 0.188,-0.063 0.179,-0.058 0.18,-0.051 0.184,-0.051 0.179,-0.039 0.188,-0.027 0.18,-0.043 0.179,-0.028 0.184,-0.019 0.18,-0.031 0.179,-0.02 0.188,-0.019 0.179,-0.024 0.18,-0.008 0.184,-0.011 0.179,-0.02 0.188,-0.008 0.18,-0.011 h 0.179 l 0.184,-0.008 0.18,-0.012 h 0.187 l 0.18,-0.012 h 0.179 l 0.18,-0.008 h 0.551 l 0.18,-0.011 h 2.179 l 0.184,-0.008 h 20.187" /></g><text
       id="text4094"
       style="font-variant:normal;font-weight:normal;font-size:12px;font-family:Helvetica;-inkscape-font-specification:Helvetica;writing-mode:lr-tb;fill:#000000;fill-opacity:1;fill-rule:nonzero;stroke:none"
       transform="scale(1,-1)"
       x="309.45197"
       y="-298.66196"><tspan
         id="tspan4092"
         y="-298.66196"
         x="309.45197">M</tspan></text>
<g
       transform="translate(0,368.50394)"
       id="g4096"><path
         inkscape:connector-curvature="0"
         id="path4098"
         style="fill:none;stroke:#000000;stroke-width:0.75;stroke-linecap:round;stroke-linejoin:round;stroke-miterlimit:10;stroke-dasharray:none;stroke-opacity:1"
         d="m 235.691,-313.703 v -5.668" /></g><g
       transform="translate(0,368.50394)"
       id="g4100"><path
         inkscape:connector-curvature="0"
         id="path4102"
         style="fill:none;stroke:#000000;stroke-width:0.75;stroke-linecap:round;stroke-linejoin:round;stroke-miterlimit:10;stroke-dasharray:none;stroke-opacity:1"
         d="m 323.543,-313.703 v -5.668" /></g><g
       transform="translate(0,368.50394)"
       id="g4104"><path
         inkscape:connector-curvature="0"
         id="path4106"
         style="fill:none;stroke:#000000;stroke-width:0.75;stroke-linecap:round;stroke-linejoin:round;stroke-miterlimit:10;stroke-dasharray:none;stroke-opacity:1"
         d="m 381.191,-313.703 v -5.668" /></g><text
       id="text4110"
       style="font-variant:normal;font-weight:normal;font-size:10px;font-family:Helvetica;-inkscape-font-specification:Helvetica;writing-mode:lr-tb;fill:#000000;fill-opacity:1;fill-rule:nonzero;stroke:none"
       transform="scale(1,-1)"
       x="230.13196"
       y="-36.281967"><tspan
         id="tspan4108"
         sodipodi:role="line"
         y="-36.281967"
         x="230.13196 235.69196 317.98196 323.54196 372.85196 378.41196 383.97195">4088120</tspan></text>
<g
       transform="translate(0,368.50394)"
       id="g4112"><path
         inkscape:connector-curvature="0"
         id="path4114"
         style="fill:none;stroke:#000000;stroke-width:0.75;stroke-linecap:round;stroke-linejoin:round;stroke-miterlimit:10;stroke-dasharray:none;stroke-opacity:1"
         d="M 225.512,-47.66 H 391.383 V -313.703 H 225.512 Z" /></g><g
       id="g4116"><g
         id="g4118"
         clip-path="url(#clipPath4122)"><g
           id="g4124"
           transform="translate(0,-0.496063)"><g
             id="g4126"><g
               id="g4128"
               clip-path="url(#clipPath4132)"><g
                 id="g4134"><g
                   id="g4136"
                   transform="translate(0,369)"><path
                     d="M 225.512,-33.262 H 391.383 V -47.66 H 225.512 Z"
                     style="fill:#ffe5cc;fill-opacity:1;fill-rule:nonzero;stroke:#ffe5cc;stroke-width:0.75;stroke-linecap:round;stroke-linejoin:round;stroke-miterlimit:10;stroke-dasharray:none;stroke-opacity:1"
                     id="path4138"
                     inkscape:connector-curvature="0" /></g><text
                   transform="matrix(1,0,0,-1,300.77196,324.22802)"
                   style="font-variant:normal;font-weight:normal;font-size:12px;font-family:Helvetica;-inkscape-font-specification:Helvetica;writing-mode:lr-tb;fill:#000000;fill-opacity:1;fill-rule:nonzero;stroke:none"
                   id="text4142"><tspan
                     x="0 8.6639996"
                     y="0"
                     sodipodi:role="line"
                     id="tspan4140">C2</tspan></text>
</g></g></g></g></g></g><g
       id="g4144"><g
         id="g4146"
         transform="translate(0,368.50394)"><path
           d="M 225.512,-33.262 H 391.383 V -47.66 H 225.512 Z"
           style="fill:none;stroke:#000000;stroke-width:0.75;stroke-linecap:round;stroke-linejoin:round;stroke-miterlimit:10;stroke-dasharray:none;stroke-opacity:1"
           id="path4148"
           inkscape:connector-curvature="0" /></g><g
         id="g4150"
         transform="translate(0,368.50394)"><path
           d="m 557.242,-297.371 h 5.668"
           style="fill:none;stroke:#000000;stroke-width:0.75;stroke-linecap:round;stroke-linejoin:round;stroke-miterlimit:10;stroke-dasharray:none;stroke-opacity:1"
           id="path4152"
           inkscape:connector-curvature="0" /></g><g
         id="g4154"
         transform="translate(0,368.50394)"><path
           d="m 557.242,-252.051 h 5.668"
           style="fill:none;stroke:#000000;stroke-width:0.75;stroke-linecap:round;stroke-linejoin:round;stroke-miterlimit:10;stroke-dasharray:none;stroke-opacity:1"
           id="path4156"
           inkscape:connector-curvature="0" /></g><g
         id="g4158"
         transform="translate(0,368.50394)"><path
           d="m 557.242,-206.742 h 5.668"
           style="fill:none;stroke:#000000;stroke-width:0.75;stroke-linecap:round;stroke-linejoin:round;stroke-miterlimit:10;stroke-dasharray:none;stroke-opacity:1"
           id="path4160"
           inkscape:connector-curvature="0" /></g><g
         id="g4162"
         transform="translate(0,368.50394)"><path
           d="m 557.242,-161.434 h 5.668"
           style="fill:none;stroke:#000000;stroke-width:0.75;stroke-linecap:round;stroke-linejoin:round;stroke-miterlimit:10;stroke-dasharray:none;stroke-opacity:1"
           id="path4164"
           inkscape:connector-curvature="0" /></g><g
         id="g4166"
         transform="translate(0,368.50394)"><path
           d="m 557.242,-116.113 h 5.668"
           style="fill:none;stroke:#000000;stroke-width:0.75;stroke-linecap:round;stroke-linejoin:round;stroke-miterlimit:10;stroke-dasharray:none;stroke-opacity:1"
           id="path4168"
           inkscape:connector-curvature="0" /></g><g
         id="g4170"
         transform="translate(0,368.50394)"><path
           d="m 557.242,-70.801 h 5.668"
           style="fill:none;stroke:#000000;stroke-width:0.75;stroke-linecap:round;stroke-linejoin:round;stroke-miterlimit:10;stroke-dasharray:none;stroke-opacity:1"
           id="path4172"
           inkscape:connector-curvature="0" /></g><g
         id="g4174"
         transform="translate(0,368.50394)"><path
           d="m 401.562,-313.703 v -5.668"
           style="fill:none;stroke:#000000;stroke-width:0.75;stroke-linecap:round;stroke-linejoin:round;stroke-miterlimit:10;stroke-dasharray:none;stroke-opacity:1"
           id="path4176"
           inkscape:connector-curvature="0" /></g><g
         id="g4178"
         transform="translate(0,368.50394)"><path
           d="m 498.32,-313.703 v -5.668"
           style="fill:none;stroke:#000000;stroke-width:0.75;stroke-linecap:round;stroke-linejoin:round;stroke-miterlimit:10;stroke-dasharray:none;stroke-opacity:1"
           id="path4180"
           inkscape:connector-curvature="0" /></g><g
         id="g4182"
         transform="translate(0,368.50394)"><path
           d="m 547.062,-313.703 v -5.668"
           style="fill:none;stroke:#000000;stroke-width:0.75;stroke-linecap:round;stroke-linejoin:round;stroke-miterlimit:10;stroke-dasharray:none;stroke-opacity:1"
           id="path4184"
           inkscape:connector-curvature="0" /></g><text
         transform="matrix(1,0,0,-1,396.00196,36.281967)"
         style="font-variant:normal;font-weight:normal;font-size:10px;font-family:Helvetica;-inkscape-font-specification:Helvetica;writing-mode:lr-tb;fill:#000000;fill-opacity:1;fill-rule:nonzero;stroke:none"
         id="text4188"><tspan
           sodipodi:role="line"
           id="tspan4186"
           x="0"
           y="9.0075445" /></text>
<g
         id="g4190"
         transform="translate(0,368.50394)"><path
           d="M 391.383,-47.66 H 557.254 V -313.703 H 391.383 Z"
           style="fill:none;stroke:#000000;stroke-width:0.75;stroke-linecap:round;stroke-linejoin:round;stroke-miterlimit:10;stroke-dasharray:none;stroke-opacity:1"
           id="path4192"
           inkscape:connector-curvature="0" /></g></g><g
       id="g4194"><g
         id="g4196"
         clip-path="url(#clipPath4200)"><g
           id="g4202"
           transform="translate(0,-0.496063)"><g
             id="g4204"><g
               id="g4206"
               clip-path="url(#clipPath4210)"><g
                 id="g4212"><g
                   id="g4214"
                   transform="translate(0,369)"><path
                     d="M 391.383,-33.262 H 557.254 V -47.66 H 391.383 Z"
                     style="fill:#ffe5cc;fill-opacity:1;fill-rule:nonzero;stroke:#ffe5cc;stroke-width:0.75;stroke-linecap:round;stroke-linejoin:round;stroke-miterlimit:10;stroke-dasharray:none;stroke-opacity:1"
                     id="path4216"
                     inkscape:connector-curvature="0" /></g><text
                   transform="matrix(1,0,0,-1,466.64196,324.22802)"
                   style="font-variant:normal;font-weight:normal;font-size:12px;font-family:Helvetica;-inkscape-font-specification:Helvetica;writing-mode:lr-tb;fill:#000000;fill-opacity:1;fill-rule:nonzero;stroke:none"
                   id="text4220"><tspan
                     sodipodi:role="line"
                     id="tspan4218"
                     x="0"
                     y="10.809053" /></text>
</g></g></g></g></g></g><g
       id="g4222"><g
         id="g4224"
         transform="translate(0,368.50394)"><path
           d="M 391.383,-33.262 H 557.254 V -47.66 H 391.383 Z"
           style="fill:none;stroke:#000000;stroke-width:0.75;stroke-linecap:round;stroke-linejoin:round;stroke-miterlimit:10;stroke-dasharray:none;stroke-opacity:1"
           id="path4226"
           inkscape:connector-curvature="0" /></g><g
         id="g4228"
         transform="translate(0,368.50394)"><path
           d="m 354.922,-68.133 h 33.359"
           style="fill:none;stroke:#4292c6;stroke-width:2.25;stroke-linecap:round;stroke-linejoin:round;stroke-miterlimit:10;stroke-dasharray:none;stroke-opacity:1"
           id="path4230"
           inkscape:connector-curvature="0" /></g><g
         id="g4232"
         transform="translate(0,368.50394)"><path
           d="m 354.922,-81.781 h 33.359"
           style="fill:none;stroke:#74c476;stroke-width:2.25;stroke-linecap:round;stroke-linejoin:round;stroke-miterlimit:10;stroke-dasharray:6.75, 11.25;stroke-dashoffset:0;stroke-opacity:1"
           id="path4234"
           inkscape:connector-curvature="0" /></g><text
         transform="matrix(1,0,0,-1,401.63196,294.99196)"
         style="font-variant:normal;font-weight:normal;font-size:15px;font-family:Helvetica;-inkscape-font-specification:Helvetica;writing-mode:lr-tb;fill:#000000;fill-opacity:1;fill-rule:nonzero;stroke:none"
         id="text4240"><tspan
           x="0 11.655 19.995001 27.495001 35.834999 41.279999 48.404999 56.744999"
           y="0"
           sodipodi:role="line"
           id="tspan4236">Observed</tspan><tspan
           x="0 9.9899998 17.49 21.645 24.975 37.470001 45.810001 49.965 58.305"
           y="13.65"
           sodipodi:role="line"
           id="tspan4238">Estimated</tspan></text>
</g></g></svg>